<?xml version="1.0" standalone="no"?>
<!DOCTYPE svg PUBLIC "-//W3C//DTD SVG 20010904//EN"
 "http://www.w3.org/TR/2001/REC-SVG-20010904/DTD/svg10.dtd">
<svg version="1.0" xmlns="http://www.w3.org/2000/svg"
 width="128.000000pt" height="128.000000pt" viewBox="0 0 128.000000 128.000000"
 preserveAspectRatio="xMidYMid meet">
<metadata>
Created by potrace 1.11, written by Peter Selinger 2001-2013
</metadata>
<g transform="translate(0.000000,128.000000) scale(0.100000,-0.100000)"
fill="#000000" stroke="none">
<path d="M502 1228 c-14 -14 -16 -67 -3 -87 5 -8 28 -16 52 -17 30 -1 43 -6
45 -18 3 -20 -3 -24 -47 -31 -59 -10 -125 -35 -174 -66 -65 -41 -93 -33 -71
21 7 16 -26 60 -45 60 -6 0 -36 -24 -66 -53 -48 -47 -55 -57 -49 -80 7 -30 48
-46 69 -29 9 8 16 6 24 -7 10 -15 8 -22 -7 -36 -25 -23 -85 -149 -100 -210
-29 -122 6 -302 78 -408 44 -63 131 -139 193 -169 96 -46 129 -53 244 -52 94
0 120 4 178 27 154 60 262 175 313 332 19 57 22 88 20 170 -3 119 -23 183 -82
272 -40 59 -41 63 -24 78 13 12 19 13 22 4 8 -23 57 -1 64 28 6 23 -1 33 -49
80 -30 29 -60 53 -66 53 -6 0 -19 -10 -30 -21 -15 -17 -18 -27 -10 -46 5 -14
7 -29 3 -34 -7 -12 -41 -12 -48 0 -15 24 -136 74 -206 86 -39 7 -43 10 -46 30
-2 15 12 19 48 16 51 -5 86 62 52 100 -15 17 -31 19 -144 19 -85 0 -130 -4
-138 -12z"/>
</g>
</svg>
